<mxfile host="app.diagrams.net" modified="2020-10-21T05:33:54.838Z" agent="5.0 (Macintosh; Intel Mac OS X 10_15_7) AppleWebKit/537.36 (KHTML, like Gecko) Chrome/86.0.4240.80 Safari/537.36" etag="CkEtZ_9X7jLTYSH4gs08" version="13.8.1" type="github">
  <diagram id="D3YmafoL8N1RBMf_zLH-" name="Page-1">
    <mxGraphModel dx="2131" dy="1803" grid="1" gridSize="10" guides="1" tooltips="1" connect="1" arrows="1" fold="1" page="1" pageScale="1" pageWidth="827" pageHeight="1169" math="0" shadow="0">
      <root>
        <mxCell id="0" />
        <mxCell id="1" parent="0" />
        <mxCell id="sdRUNIrDwh6hOreDYhYG-111" value="" style="rounded=0;whiteSpace=wrap;html=1;fontStyle=1;dashed=1;" vertex="1" parent="1">
          <mxGeometry x="-100" y="-150" width="330" height="183" as="geometry" />
        </mxCell>
        <mxCell id="sdRUNIrDwh6hOreDYhYG-114" value="" style="rounded=0;whiteSpace=wrap;html=1;fontStyle=1;dashed=1;" vertex="1" parent="1">
          <mxGeometry x="160" y="100" width="430" height="410" as="geometry" />
        </mxCell>
        <mxCell id="sdRUNIrDwh6hOreDYhYG-123" value="" style="ellipse;whiteSpace=wrap;html=1;" vertex="1" parent="1">
          <mxGeometry x="-40" y="-80" width="310" height="356" as="geometry" />
        </mxCell>
        <mxCell id="sdRUNIrDwh6hOreDYhYG-121" value="" style="ellipse;whiteSpace=wrap;html=1;" vertex="1" parent="1">
          <mxGeometry x="191" y="160" width="289" height="330" as="geometry" />
        </mxCell>
        <mxCell id="sdRUNIrDwh6hOreDYhYG-124" value="" style="rounded=0;whiteSpace=wrap;html=1;dashed=1;" vertex="1" parent="1">
          <mxGeometry x="331.5" y="227.5" width="210" height="100" as="geometry" />
        </mxCell>
        <mxCell id="sdRUNIrDwh6hOreDYhYG-113" value="" style="rounded=0;whiteSpace=wrap;html=1;fontStyle=1;dashed=1;" vertex="1" parent="1">
          <mxGeometry x="-190" y="57" width="180" height="710" as="geometry" />
        </mxCell>
        <mxCell id="sdRUNIrDwh6hOreDYhYG-112" value="" style="rounded=0;whiteSpace=wrap;html=1;fontStyle=1;dashed=1;" vertex="1" parent="1">
          <mxGeometry x="-338.5" y="-72.25" width="210" height="109.5" as="geometry" />
        </mxCell>
        <mxCell id="sdRUNIrDwh6hOreDYhYG-110" value="" style="rounded=0;whiteSpace=wrap;html=1;dashed=1;" vertex="1" parent="1">
          <mxGeometry x="300" y="-163" width="306" height="183" as="geometry" />
        </mxCell>
        <mxCell id="sdRUNIrDwh6hOreDYhYG-109" value="" style="rounded=0;whiteSpace=wrap;html=1;dashed=1;" vertex="1" parent="1">
          <mxGeometry x="620" y="92" width="190" height="660" as="geometry" />
        </mxCell>
        <mxCell id="sdRUNIrDwh6hOreDYhYG-108" value="" style="rounded=0;whiteSpace=wrap;html=1;dashed=1;" vertex="1" parent="1">
          <mxGeometry x="111" y="594" width="330" height="120" as="geometry" />
        </mxCell>
        <mxCell id="sdRUNIrDwh6hOreDYhYG-16" value="" style="shape=mxgraph.cisco.storage.cloud;html=1;pointerEvents=1;dashed=0;fillColor=#036897;strokeColor=#ffffff;strokeWidth=2;verticalLabelPosition=bottom;verticalAlign=top;align=center;outlineConnect=0;" vertex="1" parent="1">
          <mxGeometry x="-75" y="-128" width="250" height="128" as="geometry" />
        </mxCell>
        <mxCell id="sdRUNIrDwh6hOreDYhYG-73" value="" style="endArrow=none;html=1;" edge="1" parent="1" source="sdRUNIrDwh6hOreDYhYG-8" target="sdRUNIrDwh6hOreDYhYG-40">
          <mxGeometry width="50" height="50" relative="1" as="geometry">
            <mxPoint x="260" y="247.77182044887786" as="sourcePoint" />
            <mxPoint x="421" y="191.5623441396508" as="targetPoint" />
          </mxGeometry>
        </mxCell>
        <mxCell id="sdRUNIrDwh6hOreDYhYG-72" value="" style="endArrow=none;html=1;" edge="1" parent="1" source="sdRUNIrDwh6hOreDYhYG-5" target="sdRUNIrDwh6hOreDYhYG-40">
          <mxGeometry width="50" height="50" relative="1" as="geometry">
            <mxPoint x="280" y="180" as="sourcePoint" />
            <mxPoint x="330" y="130" as="targetPoint" />
          </mxGeometry>
        </mxCell>
        <mxCell id="sdRUNIrDwh6hOreDYhYG-74" value="" style="endArrow=none;html=1;" edge="1" parent="1" source="sdRUNIrDwh6hOreDYhYG-53" target="sdRUNIrDwh6hOreDYhYG-40">
          <mxGeometry width="50" height="50" relative="1" as="geometry">
            <mxPoint x="424.95471698113215" y="308" as="sourcePoint" />
            <mxPoint x="432.5924528301887" y="220" as="targetPoint" />
          </mxGeometry>
        </mxCell>
        <mxCell id="sdRUNIrDwh6hOreDYhYG-75" value="" style="endArrow=none;html=1;entryX=0.811;entryY=0.305;entryDx=0;entryDy=0;entryPerimeter=0;" edge="1" parent="1" source="sdRUNIrDwh6hOreDYhYG-52" target="sdRUNIrDwh6hOreDYhYG-5">
          <mxGeometry width="50" height="50" relative="1" as="geometry">
            <mxPoint x="500" y="190.1033519553073" as="sourcePoint" />
            <mxPoint x="450" y="187.31005586592187" as="targetPoint" />
          </mxGeometry>
        </mxCell>
        <mxCell id="sdRUNIrDwh6hOreDYhYG-76" value="" style="endArrow=none;html=1;" edge="1" parent="1" source="sdRUNIrDwh6hOreDYhYG-53" target="sdRUNIrDwh6hOreDYhYG-15">
          <mxGeometry width="50" height="50" relative="1" as="geometry">
            <mxPoint x="510" y="200.1033519553073" as="sourcePoint" />
            <mxPoint x="460" y="197.31005586592187" as="targetPoint" />
          </mxGeometry>
        </mxCell>
        <mxCell id="sdRUNIrDwh6hOreDYhYG-77" value="" style="endArrow=none;html=1;" edge="1" parent="1" source="sdRUNIrDwh6hOreDYhYG-52" target="sdRUNIrDwh6hOreDYhYG-14">
          <mxGeometry width="50" height="50" relative="1" as="geometry">
            <mxPoint x="520" y="210.1033519553073" as="sourcePoint" />
            <mxPoint x="470" y="207.31005586592187" as="targetPoint" />
          </mxGeometry>
        </mxCell>
        <mxCell id="sdRUNIrDwh6hOreDYhYG-79" value="" style="endArrow=none;html=1;entryX=0.988;entryY=0.162;entryDx=0;entryDy=0;entryPerimeter=0;" edge="1" parent="1" source="sdRUNIrDwh6hOreDYhYG-13" target="sdRUNIrDwh6hOreDYhYG-5">
          <mxGeometry width="50" height="50" relative="1" as="geometry">
            <mxPoint x="540" y="230.1033519553073" as="sourcePoint" />
            <mxPoint x="490" y="227.31005586592187" as="targetPoint" />
          </mxGeometry>
        </mxCell>
        <mxCell id="sdRUNIrDwh6hOreDYhYG-82" value="" style="endArrow=none;html=1;exitX=0.5;exitY=1;exitDx=0;exitDy=0;exitPerimeter=0;" edge="1" parent="1" source="sdRUNIrDwh6hOreDYhYG-80" target="sdRUNIrDwh6hOreDYhYG-5">
          <mxGeometry width="50" height="50" relative="1" as="geometry">
            <mxPoint x="398.928464961431" y="75.99999999999977" as="sourcePoint" />
            <mxPoint x="259.39999999999986" y="231.82600000000002" as="targetPoint" />
          </mxGeometry>
        </mxCell>
        <mxCell id="sdRUNIrDwh6hOreDYhYG-83" value="" style="endArrow=none;html=1;" edge="1" parent="1" source="sdRUNIrDwh6hOreDYhYG-80" target="sdRUNIrDwh6hOreDYhYG-11">
          <mxGeometry width="50" height="50" relative="1" as="geometry">
            <mxPoint x="349" y="20" as="sourcePoint" />
            <mxPoint x="252.59408033826617" y="220" as="targetPoint" />
          </mxGeometry>
        </mxCell>
        <mxCell id="sdRUNIrDwh6hOreDYhYG-84" value="" style="endArrow=none;html=1;" edge="1" parent="1" source="sdRUNIrDwh6hOreDYhYG-11" target="sdRUNIrDwh6hOreDYhYG-9">
          <mxGeometry width="50" height="50" relative="1" as="geometry">
            <mxPoint x="359" y="30" as="sourcePoint" />
            <mxPoint x="262.59408033826617" y="230" as="targetPoint" />
          </mxGeometry>
        </mxCell>
        <mxCell id="sdRUNIrDwh6hOreDYhYG-85" value="" style="endArrow=none;html=1;fillColor=#f8cecc;strokeColor=#FF3333;" edge="1" parent="1" source="sdRUNIrDwh6hOreDYhYG-5" target="sdRUNIrDwh6hOreDYhYG-6">
          <mxGeometry width="50" height="50" relative="1" as="geometry">
            <mxPoint x="259.9999999999998" y="247.77182044887786" as="sourcePoint" />
            <mxPoint x="421" y="191.5623441396508" as="targetPoint" />
          </mxGeometry>
        </mxCell>
        <mxCell id="sdRUNIrDwh6hOreDYhYG-86" value="" style="endArrow=none;html=1;exitX=0.5;exitY=1;exitDx=0;exitDy=0;exitPerimeter=0;fillColor=#f8cecc;strokeColor=#FF3333;" edge="1" parent="1" source="sdRUNIrDwh6hOreDYhYG-5" target="sdRUNIrDwh6hOreDYhYG-7">
          <mxGeometry width="50" height="50" relative="1" as="geometry">
            <mxPoint x="269.9999999999998" y="257.77182044887786" as="sourcePoint" />
            <mxPoint x="441.37931034482756" y="370" as="targetPoint" />
          </mxGeometry>
        </mxCell>
        <mxCell id="sdRUNIrDwh6hOreDYhYG-87" value="" style="endArrow=none;html=1;fillColor=#f8cecc;strokeColor=#FF3333;" edge="1" parent="1" source="sdRUNIrDwh6hOreDYhYG-6" target="sdRUNIrDwh6hOreDYhYG-7">
          <mxGeometry width="50" height="50" relative="1" as="geometry">
            <mxPoint x="279.9999999999998" y="267.77182044887786" as="sourcePoint" />
            <mxPoint x="441" y="211.5623441396508" as="targetPoint" />
          </mxGeometry>
        </mxCell>
        <mxCell id="sdRUNIrDwh6hOreDYhYG-88" value="" style="endArrow=none;html=1;fillColor=#f8cecc;strokeColor=#FF3333;" edge="1" parent="1" source="sdRUNIrDwh6hOreDYhYG-7" target="sdRUNIrDwh6hOreDYhYG-41">
          <mxGeometry width="50" height="50" relative="1" as="geometry">
            <mxPoint x="289.9999999999998" y="277.77182044887786" as="sourcePoint" />
            <mxPoint x="451" y="221.5623441396508" as="targetPoint" />
          </mxGeometry>
        </mxCell>
        <mxCell id="sdRUNIrDwh6hOreDYhYG-89" value="" style="endArrow=none;html=1;fillColor=#f8cecc;strokeColor=#FF3333;" edge="1" parent="1" source="sdRUNIrDwh6hOreDYhYG-7" target="sdRUNIrDwh6hOreDYhYG-42">
          <mxGeometry width="50" height="50" relative="1" as="geometry">
            <mxPoint x="468" y="444.8076923076924" as="sourcePoint" />
            <mxPoint x="685.4008810572686" y="255" as="targetPoint" />
          </mxGeometry>
        </mxCell>
        <mxCell id="sdRUNIrDwh6hOreDYhYG-90" value="" style="endArrow=none;html=1;fillColor=#f8cecc;strokeColor=#FF3333;" edge="1" parent="1" source="sdRUNIrDwh6hOreDYhYG-7" target="sdRUNIrDwh6hOreDYhYG-43">
          <mxGeometry width="50" height="50" relative="1" as="geometry">
            <mxPoint x="478" y="454.8076923076924" as="sourcePoint" />
            <mxPoint x="695.4008810572686" y="265" as="targetPoint" />
          </mxGeometry>
        </mxCell>
        <mxCell id="sdRUNIrDwh6hOreDYhYG-91" value="" style="endArrow=none;html=1;fillColor=#f8cecc;strokeColor=#FF3333;" edge="1" parent="1" source="sdRUNIrDwh6hOreDYhYG-7" target="sdRUNIrDwh6hOreDYhYG-44">
          <mxGeometry width="50" height="50" relative="1" as="geometry">
            <mxPoint x="488" y="464.8076923076924" as="sourcePoint" />
            <mxPoint x="705.4008810572686" y="275" as="targetPoint" />
          </mxGeometry>
        </mxCell>
        <mxCell id="sdRUNIrDwh6hOreDYhYG-92" value="" style="endArrow=none;html=1;exitX=0.895;exitY=0.82;exitDx=0;exitDy=0;exitPerimeter=0;fillColor=#f8cecc;strokeColor=#FF3333;" edge="1" parent="1" source="sdRUNIrDwh6hOreDYhYG-7" target="sdRUNIrDwh6hOreDYhYG-45">
          <mxGeometry width="50" height="50" relative="1" as="geometry">
            <mxPoint x="498" y="474.8076923076924" as="sourcePoint" />
            <mxPoint x="715.4008810572686" y="285" as="targetPoint" />
          </mxGeometry>
        </mxCell>
        <mxCell id="sdRUNIrDwh6hOreDYhYG-93" value="" style="endArrow=none;html=1;fillColor=#f8cecc;strokeColor=#FF3333;" edge="1" parent="1" source="sdRUNIrDwh6hOreDYhYG-7" target="sdRUNIrDwh6hOreDYhYG-46">
          <mxGeometry width="50" height="50" relative="1" as="geometry">
            <mxPoint x="461.6999999999998" y="488.2800000000002" as="sourcePoint" />
            <mxPoint x="682.7744845360826" y="648" as="targetPoint" />
          </mxGeometry>
        </mxCell>
        <mxCell id="sdRUNIrDwh6hOreDYhYG-94" value="" style="endArrow=none;html=1;fillColor=#f8cecc;strokeColor=#FF3333;" edge="1" parent="1" source="sdRUNIrDwh6hOreDYhYG-6" target="sdRUNIrDwh6hOreDYhYG-31">
          <mxGeometry width="50" height="50" relative="1" as="geometry">
            <mxPoint x="270" y="431.8931116389549" as="sourcePoint" />
            <mxPoint x="408" y="464.0166270783848" as="targetPoint" />
          </mxGeometry>
        </mxCell>
        <mxCell id="sdRUNIrDwh6hOreDYhYG-95" value="" style="endArrow=none;html=1;fillColor=#f8cecc;strokeColor=#FF3333;" edge="1" parent="1" source="sdRUNIrDwh6hOreDYhYG-6" target="sdRUNIrDwh6hOreDYhYG-28">
          <mxGeometry width="50" height="50" relative="1" as="geometry">
            <mxPoint x="280" y="441.8931116389549" as="sourcePoint" />
            <mxPoint x="418" y="474.0166270783848" as="targetPoint" />
          </mxGeometry>
        </mxCell>
        <mxCell id="sdRUNIrDwh6hOreDYhYG-96" value="" style="endArrow=none;html=1;fillColor=#f8cecc;strokeColor=#FF3333;" edge="1" parent="1" source="sdRUNIrDwh6hOreDYhYG-6" target="sdRUNIrDwh6hOreDYhYG-47">
          <mxGeometry width="50" height="50" relative="1" as="geometry">
            <mxPoint x="222.9824191279888" y="444" as="sourcePoint" />
            <mxPoint x="162.2004219409282" y="740" as="targetPoint" />
          </mxGeometry>
        </mxCell>
        <mxCell id="sdRUNIrDwh6hOreDYhYG-97" value="" style="endArrow=none;html=1;exitX=0.32;exitY=0.836;exitDx=0;exitDy=0;exitPerimeter=0;fillColor=#f8cecc;strokeColor=#FF3333;" edge="1" parent="1" source="sdRUNIrDwh6hOreDYhYG-5" target="sdRUNIrDwh6hOreDYhYG-49">
          <mxGeometry width="50" height="50" relative="1" as="geometry">
            <mxPoint x="233.34592145015108" y="293" as="sourcePoint" />
            <mxPoint x="228.49697885196383" y="400" as="targetPoint" />
          </mxGeometry>
        </mxCell>
        <mxCell id="sdRUNIrDwh6hOreDYhYG-98" value="" style="endArrow=none;html=1;exitX=0.56;exitY=0.753;exitDx=0;exitDy=0;exitPerimeter=0;fillColor=#f8cecc;strokeColor=#FF3333;" edge="1" parent="1" source="sdRUNIrDwh6hOreDYhYG-5" target="sdRUNIrDwh6hOreDYhYG-50">
          <mxGeometry width="50" height="50" relative="1" as="geometry">
            <mxPoint x="243.34592145015108" y="303" as="sourcePoint" />
            <mxPoint x="-40" y="298" as="targetPoint" />
          </mxGeometry>
        </mxCell>
        <mxCell id="sdRUNIrDwh6hOreDYhYG-99" value="" style="endArrow=none;html=1;exitX=0.6;exitY=0.863;exitDx=0;exitDy=0;exitPerimeter=0;fillColor=#f8cecc;strokeColor=#FF3333;" edge="1" parent="1" source="sdRUNIrDwh6hOreDYhYG-5" target="sdRUNIrDwh6hOreDYhYG-51">
          <mxGeometry width="50" height="50" relative="1" as="geometry">
            <mxPoint x="238" y="274.96900000000005" as="sourcePoint" />
            <mxPoint x="-34" y="304.4637733333334" as="targetPoint" />
          </mxGeometry>
        </mxCell>
        <mxCell id="sdRUNIrDwh6hOreDYhYG-100" value="" style="endArrow=none;html=1;exitX=0.38;exitY=0.836;exitDx=0;exitDy=0;exitPerimeter=0;fillColor=#f8cecc;strokeColor=#FF3333;" edge="1" parent="1" source="sdRUNIrDwh6hOreDYhYG-5" target="sdRUNIrDwh6hOreDYhYG-48">
          <mxGeometry width="50" height="50" relative="1" as="geometry">
            <mxPoint x="226" y="281.028" as="sourcePoint" />
            <mxPoint x="-41.15405469428583" y="422" as="targetPoint" />
          </mxGeometry>
        </mxCell>
        <mxCell id="sdRUNIrDwh6hOreDYhYG-101" value="" style="endArrow=none;html=1;exitX=0.68;exitY=0.589;exitDx=0;exitDy=0;exitPerimeter=0;entryX=0.72;entryY=0.808;entryDx=0;entryDy=0;entryPerimeter=0;fillColor=#f8cecc;strokeColor=#FF3333;" edge="1" parent="1" source="sdRUNIrDwh6hOreDYhYG-5" target="sdRUNIrDwh6hOreDYhYG-17">
          <mxGeometry width="50" height="50" relative="1" as="geometry">
            <mxPoint x="240" y="282.999" as="sourcePoint" />
            <mxPoint x="-34" y="190.45686092715232" as="targetPoint" />
          </mxGeometry>
        </mxCell>
        <mxCell id="sdRUNIrDwh6hOreDYhYG-102" value="" style="endArrow=none;html=1;exitX=0.66;exitY=0.575;exitDx=0;exitDy=0;exitPerimeter=0;fillColor=#f8cecc;strokeColor=#FF3333;" edge="1" parent="1" source="sdRUNIrDwh6hOreDYhYG-5" target="sdRUNIrDwh6hOreDYhYG-57">
          <mxGeometry width="50" height="50" relative="1" as="geometry">
            <mxPoint x="250" y="292.999" as="sourcePoint" />
            <mxPoint x="-24" y="200.45686092715232" as="targetPoint" />
          </mxGeometry>
        </mxCell>
        <mxCell id="sdRUNIrDwh6hOreDYhYG-103" value="" style="endArrow=none;html=1;exitX=0.64;exitY=0.671;exitDx=0;exitDy=0;exitPerimeter=0;fillColor=#f8cecc;strokeColor=#FF3333;" edge="1" parent="1" source="sdRUNIrDwh6hOreDYhYG-17" target="sdRUNIrDwh6hOreDYhYG-57">
          <mxGeometry width="50" height="50" relative="1" as="geometry">
            <mxPoint x="260" y="302.999" as="sourcePoint" />
            <mxPoint x="-14" y="210.45686092715232" as="targetPoint" />
          </mxGeometry>
        </mxCell>
        <mxCell id="sdRUNIrDwh6hOreDYhYG-104" value="" style="endArrow=none;html=1;dashed=1;dashPattern=1 1;" edge="1" parent="1" source="sdRUNIrDwh6hOreDYhYG-58" target="sdRUNIrDwh6hOreDYhYG-57">
          <mxGeometry width="50" height="50" relative="1" as="geometry">
            <mxPoint x="270" y="312.999" as="sourcePoint" />
            <mxPoint x="-4" y="220.45686092715232" as="targetPoint" />
          </mxGeometry>
        </mxCell>
        <mxCell id="sdRUNIrDwh6hOreDYhYG-105" value="" style="endArrow=none;html=1;entryX=0.96;entryY=0.644;entryDx=0;entryDy=0;entryPerimeter=0;" edge="1" parent="1" source="sdRUNIrDwh6hOreDYhYG-12" target="sdRUNIrDwh6hOreDYhYG-17">
          <mxGeometry width="50" height="50" relative="1" as="geometry">
            <mxPoint x="244" y="262.99700000000007" as="sourcePoint" />
            <mxPoint x="152" y="5.983999999999924" as="targetPoint" />
          </mxGeometry>
        </mxCell>
        <mxCell id="sdRUNIrDwh6hOreDYhYG-5" value="" style="points=[[0.015,0.015,0],[0.985,0.015,0],[0.985,0.985,0],[0.015,0.985,0],[0.25,0,0],[0.5,0,0],[0.75,0,0],[1,0.25,0],[1,0.5,0],[1,0.75,0],[0.75,1,0],[0.5,1,0],[0.25,1,0],[0,0.75,0],[0,0.5,0],[0,0.25,0]];verticalLabelPosition=bottom;html=1;verticalAlign=top;aspect=fixed;align=center;pointerEvents=1;shape=mxgraph.cisco19.rect;prIcon=l3_modular;fillColor=#FAFAFA;strokeColor=#005073;" vertex="1" parent="1">
          <mxGeometry x="200" y="210" width="50" height="73" as="geometry" />
        </mxCell>
        <mxCell id="sdRUNIrDwh6hOreDYhYG-6" value="" style="shape=mxgraph.cisco.switches.multiswitch_device;html=1;pointerEvents=1;dashed=0;fillColor=#036897;strokeColor=#ffffff;strokeWidth=2;verticalLabelPosition=bottom;verticalAlign=top;align=center;outlineConnect=0;" vertex="1" parent="1">
          <mxGeometry x="175" y="390" width="85" height="44" as="geometry" />
        </mxCell>
        <mxCell id="sdRUNIrDwh6hOreDYhYG-9" value="" style="shape=mxgraph.cisco.storage.cloud;html=1;pointerEvents=1;dashed=0;fillColor=#036897;strokeColor=#ffffff;strokeWidth=2;verticalLabelPosition=bottom;verticalAlign=top;align=center;outlineConnect=0;" vertex="1" parent="1">
          <mxGeometry x="464" y="-119" width="100" height="56" as="geometry" />
        </mxCell>
        <mxCell id="sdRUNIrDwh6hOreDYhYG-11" value="" style="shape=mxgraph.cisco.storage.cloud;html=1;pointerEvents=1;dashed=0;fillColor=#036897;strokeColor=#ffffff;strokeWidth=2;verticalLabelPosition=bottom;verticalAlign=top;align=center;outlineConnect=0;" vertex="1" parent="1">
          <mxGeometry x="314" y="-110" width="100" height="56" as="geometry" />
        </mxCell>
        <mxCell id="sdRUNIrDwh6hOreDYhYG-12" value="" style="shape=mxgraph.cisco.storage.cloud;html=1;pointerEvents=1;dashed=0;fillColor=#036897;strokeColor=#ffffff;strokeWidth=2;verticalLabelPosition=bottom;verticalAlign=top;align=center;outlineConnect=0;" vertex="1" parent="1">
          <mxGeometry x="191" y="-110" width="100" height="56" as="geometry" />
        </mxCell>
        <mxCell id="sdRUNIrDwh6hOreDYhYG-13" value="" style="shape=mxgraph.cisco.storage.cloud;html=1;pointerEvents=1;dashed=0;fillColor=#036897;strokeColor=#ffffff;strokeWidth=2;verticalLabelPosition=bottom;verticalAlign=top;align=center;outlineConnect=0;" vertex="1" parent="1">
          <mxGeometry x="380" y="20" width="100" height="56" as="geometry" />
        </mxCell>
        <mxCell id="sdRUNIrDwh6hOreDYhYG-14" value="" style="shape=mxgraph.cisco.storage.cloud;html=1;pointerEvents=1;dashed=0;fillColor=#036897;strokeColor=#ffffff;strokeWidth=2;verticalLabelPosition=bottom;verticalAlign=top;align=center;outlineConnect=0;" vertex="1" parent="1">
          <mxGeometry x="530" y="20" width="100" height="56" as="geometry" />
        </mxCell>
        <mxCell id="sdRUNIrDwh6hOreDYhYG-15" value="" style="shape=mxgraph.cisco.storage.cloud;html=1;pointerEvents=1;dashed=0;fillColor=#036897;strokeColor=#ffffff;strokeWidth=2;verticalLabelPosition=bottom;verticalAlign=top;align=center;outlineConnect=0;" vertex="1" parent="1">
          <mxGeometry x="643" y="2" width="100" height="56" as="geometry" />
        </mxCell>
        <mxCell id="sdRUNIrDwh6hOreDYhYG-17" value="" style="points=[[0.015,0.015,0],[0.985,0.015,0],[0.985,0.985,0],[0.015,0.985,0],[0.25,0,0],[0.5,0,0],[0.75,0,0],[1,0.25,0],[1,0.5,0],[1,0.75,0],[0.75,1,0],[0.5,1,0],[0.25,1,0],[0,0.75,0],[0,0.5,0],[0,0.25,0]];verticalLabelPosition=bottom;html=1;verticalAlign=top;aspect=fixed;align=center;pointerEvents=1;shape=mxgraph.cisco19.rect;prIcon=l3_modular;fillColor=#FAFAFA;strokeColor=#005073;" vertex="1" parent="1">
          <mxGeometry x="106" y="-63" width="50" height="73" as="geometry" />
        </mxCell>
        <mxCell id="sdRUNIrDwh6hOreDYhYG-18" value="" style="shape=mxgraph.cisco.buildings.university;html=1;pointerEvents=1;dashed=0;fillColor=#036897;strokeColor=#ffffff;strokeWidth=2;verticalLabelPosition=bottom;verticalAlign=top;align=center;outlineConnect=0;" vertex="1" parent="1">
          <mxGeometry x="3" y="-128" width="133" height="53" as="geometry" />
        </mxCell>
        <mxCell id="sdRUNIrDwh6hOreDYhYG-19" value="" style="shape=mxgraph.cisco.buildings.branch_office;html=1;pointerEvents=1;dashed=0;fillColor=#036897;strokeColor=#ffffff;strokeWidth=2;verticalLabelPosition=bottom;verticalAlign=top;align=center;outlineConnect=0;" vertex="1" parent="1">
          <mxGeometry x="700" y="102" width="51" height="75" as="geometry" />
        </mxCell>
        <mxCell id="sdRUNIrDwh6hOreDYhYG-20" value="" style="shape=mxgraph.cisco.buildings.branch_office;html=1;pointerEvents=1;dashed=0;fillColor=#036897;strokeColor=#ffffff;strokeWidth=2;verticalLabelPosition=bottom;verticalAlign=top;align=center;outlineConnect=0;" vertex="1" parent="1">
          <mxGeometry x="709" y="296.5" width="51" height="75" as="geometry" />
        </mxCell>
        <mxCell id="sdRUNIrDwh6hOreDYhYG-21" value="" style="shape=mxgraph.cisco.buildings.branch_office;html=1;pointerEvents=1;dashed=0;fillColor=#036897;strokeColor=#ffffff;strokeWidth=2;verticalLabelPosition=bottom;verticalAlign=top;align=center;outlineConnect=0;" vertex="1" parent="1">
          <mxGeometry x="709" y="192" width="51" height="75" as="geometry" />
        </mxCell>
        <mxCell id="sdRUNIrDwh6hOreDYhYG-22" value="" style="shape=mxgraph.cisco.buildings.branch_office;html=1;pointerEvents=1;dashed=0;fillColor=#036897;strokeColor=#ffffff;strokeWidth=2;verticalLabelPosition=bottom;verticalAlign=top;align=center;outlineConnect=0;" vertex="1" parent="1">
          <mxGeometry x="709" y="422" width="51" height="75" as="geometry" />
        </mxCell>
        <mxCell id="sdRUNIrDwh6hOreDYhYG-23" value="" style="shape=mxgraph.cisco.buildings.branch_office;html=1;pointerEvents=1;dashed=0;fillColor=#036897;strokeColor=#ffffff;strokeWidth=2;verticalLabelPosition=bottom;verticalAlign=top;align=center;outlineConnect=0;" vertex="1" parent="1">
          <mxGeometry x="709" y="517" width="51" height="75" as="geometry" />
        </mxCell>
        <mxCell id="sdRUNIrDwh6hOreDYhYG-24" value="" style="shape=mxgraph.cisco.buildings.branch_office;html=1;pointerEvents=1;dashed=0;fillColor=#036897;strokeColor=#ffffff;strokeWidth=2;verticalLabelPosition=bottom;verticalAlign=top;align=center;outlineConnect=0;" vertex="1" parent="1">
          <mxGeometry x="700" y="632" width="51" height="75" as="geometry" />
        </mxCell>
        <mxCell id="sdRUNIrDwh6hOreDYhYG-25" value="" style="shape=mxgraph.cisco.buildings.branch_office;html=1;pointerEvents=1;dashed=0;fillColor=#036897;strokeColor=#ffffff;strokeWidth=2;verticalLabelPosition=bottom;verticalAlign=top;align=center;outlineConnect=0;" vertex="1" parent="1">
          <mxGeometry x="730" y="622" width="51" height="75" as="geometry" />
        </mxCell>
        <mxCell id="sdRUNIrDwh6hOreDYhYG-26" value="" style="shape=mxgraph.cisco.buildings.branch_office;html=1;pointerEvents=1;dashed=0;fillColor=#036897;strokeColor=#ffffff;strokeWidth=2;verticalLabelPosition=bottom;verticalAlign=top;align=center;outlineConnect=0;" vertex="1" parent="1">
          <mxGeometry x="760" y="632" width="51" height="75" as="geometry" />
        </mxCell>
        <mxCell id="sdRUNIrDwh6hOreDYhYG-27" value="" style="shape=mxgraph.cisco.buildings.branch_office;html=1;pointerEvents=1;dashed=0;fillColor=#036897;strokeColor=#ffffff;strokeWidth=2;verticalLabelPosition=bottom;verticalAlign=top;align=center;outlineConnect=0;" vertex="1" parent="1">
          <mxGeometry x="291" y="616.5" width="51" height="75" as="geometry" />
        </mxCell>
        <mxCell id="sdRUNIrDwh6hOreDYhYG-28" value="" style="shape=mxgraph.cisco.buildings.branch_office;html=1;pointerEvents=1;dashed=0;fillColor=#036897;strokeColor=#ffffff;strokeWidth=2;verticalLabelPosition=bottom;verticalAlign=top;align=center;outlineConnect=0;" vertex="1" parent="1">
          <mxGeometry x="321" y="606.5" width="51" height="75" as="geometry" />
        </mxCell>
        <mxCell id="sdRUNIrDwh6hOreDYhYG-29" value="" style="shape=mxgraph.cisco.buildings.branch_office;html=1;pointerEvents=1;dashed=0;fillColor=#036897;strokeColor=#ffffff;strokeWidth=2;verticalLabelPosition=bottom;verticalAlign=top;align=center;outlineConnect=0;" vertex="1" parent="1">
          <mxGeometry x="351" y="616.5" width="51" height="75" as="geometry" />
        </mxCell>
        <mxCell id="sdRUNIrDwh6hOreDYhYG-30" value="" style="shape=mxgraph.cisco.buildings.branch_office;html=1;pointerEvents=1;dashed=0;fillColor=#036897;strokeColor=#ffffff;strokeWidth=2;verticalLabelPosition=bottom;verticalAlign=top;align=center;outlineConnect=0;" vertex="1" parent="1">
          <mxGeometry x="140" y="616.5" width="51" height="75" as="geometry" />
        </mxCell>
        <mxCell id="sdRUNIrDwh6hOreDYhYG-31" value="" style="shape=mxgraph.cisco.buildings.branch_office;html=1;pointerEvents=1;dashed=0;fillColor=#036897;strokeColor=#ffffff;strokeWidth=2;verticalLabelPosition=bottom;verticalAlign=top;align=center;outlineConnect=0;" vertex="1" parent="1">
          <mxGeometry x="170" y="606.5" width="51" height="75" as="geometry" />
        </mxCell>
        <mxCell id="sdRUNIrDwh6hOreDYhYG-32" value="" style="shape=mxgraph.cisco.buildings.branch_office;html=1;pointerEvents=1;dashed=0;fillColor=#036897;strokeColor=#ffffff;strokeWidth=2;verticalLabelPosition=bottom;verticalAlign=top;align=center;outlineConnect=0;" vertex="1" parent="1">
          <mxGeometry x="200" y="616.5" width="51" height="75" as="geometry" />
        </mxCell>
        <mxCell id="sdRUNIrDwh6hOreDYhYG-33" value="" style="shape=mxgraph.cisco.buildings.branch_office;html=1;pointerEvents=1;dashed=0;fillColor=#036897;strokeColor=#ffffff;strokeWidth=2;verticalLabelPosition=bottom;verticalAlign=top;align=center;outlineConnect=0;" vertex="1" parent="1">
          <mxGeometry x="-180" y="497" width="51" height="75" as="geometry" />
        </mxCell>
        <mxCell id="sdRUNIrDwh6hOreDYhYG-34" value="" style="shape=mxgraph.cisco.buildings.branch_office;html=1;pointerEvents=1;dashed=0;fillColor=#036897;strokeColor=#ffffff;strokeWidth=2;verticalLabelPosition=bottom;verticalAlign=top;align=center;outlineConnect=0;" vertex="1" parent="1">
          <mxGeometry x="-150" y="487" width="51" height="75" as="geometry" />
        </mxCell>
        <mxCell id="sdRUNIrDwh6hOreDYhYG-35" value="" style="shape=mxgraph.cisco.buildings.branch_office;html=1;pointerEvents=1;dashed=0;fillColor=#036897;strokeColor=#ffffff;strokeWidth=2;verticalLabelPosition=bottom;verticalAlign=top;align=center;outlineConnect=0;" vertex="1" parent="1">
          <mxGeometry x="-120" y="497" width="51" height="75" as="geometry" />
        </mxCell>
        <mxCell id="sdRUNIrDwh6hOreDYhYG-36" value="" style="shape=mxgraph.cisco.buildings.branch_office;html=1;pointerEvents=1;dashed=0;fillColor=#036897;strokeColor=#ffffff;strokeWidth=2;verticalLabelPosition=bottom;verticalAlign=top;align=center;outlineConnect=0;" vertex="1" parent="1">
          <mxGeometry x="-120" y="657" width="51" height="75" as="geometry" />
        </mxCell>
        <mxCell id="sdRUNIrDwh6hOreDYhYG-37" value="" style="shape=mxgraph.cisco.buildings.branch_office;html=1;pointerEvents=1;dashed=0;fillColor=#036897;strokeColor=#ffffff;strokeWidth=2;verticalLabelPosition=bottom;verticalAlign=top;align=center;outlineConnect=0;" vertex="1" parent="1">
          <mxGeometry x="-129" y="337" width="51" height="75" as="geometry" />
        </mxCell>
        <mxCell id="sdRUNIrDwh6hOreDYhYG-38" value="" style="shape=mxgraph.cisco.buildings.branch_office;html=1;pointerEvents=1;dashed=0;fillColor=#036897;strokeColor=#ffffff;strokeWidth=2;verticalLabelPosition=bottom;verticalAlign=top;align=center;outlineConnect=0;" vertex="1" parent="1">
          <mxGeometry x="-129" y="212" width="51" height="75" as="geometry" />
        </mxCell>
        <mxCell id="sdRUNIrDwh6hOreDYhYG-39" value="" style="shape=mxgraph.cisco.buildings.branch_office;html=1;pointerEvents=1;dashed=0;fillColor=#036897;strokeColor=#ffffff;strokeWidth=2;verticalLabelPosition=bottom;verticalAlign=top;align=center;outlineConnect=0;" vertex="1" parent="1">
          <mxGeometry x="-129" y="87" width="51" height="75" as="geometry" />
        </mxCell>
        <mxCell id="sdRUNIrDwh6hOreDYhYG-40" value="" style="shape=mxgraph.cisco.security.firewall;html=1;pointerEvents=1;dashed=0;fillColor=#036897;strokeColor=#ffffff;strokeWidth=2;verticalLabelPosition=bottom;verticalAlign=top;align=center;outlineConnect=0;" vertex="1" parent="1">
          <mxGeometry x="411" y="143" width="29" height="67" as="geometry" />
        </mxCell>
        <mxCell id="sdRUNIrDwh6hOreDYhYG-41" value="" style="shape=mxgraph.cisco.switches.workgroup_switch;html=1;pointerEvents=1;dashed=0;fillColor=#036897;strokeColor=#ffffff;strokeWidth=2;verticalLabelPosition=bottom;verticalAlign=top;align=center;outlineConnect=0;" vertex="1" parent="1">
          <mxGeometry x="660" y="155" width="56" height="22" as="geometry" />
        </mxCell>
        <mxCell id="sdRUNIrDwh6hOreDYhYG-42" value="" style="shape=mxgraph.cisco.switches.workgroup_switch;html=1;pointerEvents=1;dashed=0;fillColor=#036897;strokeColor=#ffffff;strokeWidth=2;verticalLabelPosition=bottom;verticalAlign=top;align=center;outlineConnect=0;" vertex="1" parent="1">
          <mxGeometry x="660" y="245" width="56" height="22" as="geometry" />
        </mxCell>
        <mxCell id="sdRUNIrDwh6hOreDYhYG-43" value="" style="shape=mxgraph.cisco.switches.workgroup_switch;html=1;pointerEvents=1;dashed=0;fillColor=#036897;strokeColor=#ffffff;strokeWidth=2;verticalLabelPosition=bottom;verticalAlign=top;align=center;outlineConnect=0;" vertex="1" parent="1">
          <mxGeometry x="660" y="349.5" width="56" height="22" as="geometry" />
        </mxCell>
        <mxCell id="sdRUNIrDwh6hOreDYhYG-44" value="" style="shape=mxgraph.cisco.switches.workgroup_switch;html=1;pointerEvents=1;dashed=0;fillColor=#036897;strokeColor=#ffffff;strokeWidth=2;verticalLabelPosition=bottom;verticalAlign=top;align=center;outlineConnect=0;" vertex="1" parent="1">
          <mxGeometry x="660" y="475" width="56" height="22" as="geometry" />
        </mxCell>
        <mxCell id="sdRUNIrDwh6hOreDYhYG-45" value="" style="shape=mxgraph.cisco.switches.workgroup_switch;html=1;pointerEvents=1;dashed=0;fillColor=#036897;strokeColor=#ffffff;strokeWidth=2;verticalLabelPosition=bottom;verticalAlign=top;align=center;outlineConnect=0;" vertex="1" parent="1">
          <mxGeometry x="660" y="570" width="56" height="22" as="geometry" />
        </mxCell>
        <mxCell id="sdRUNIrDwh6hOreDYhYG-46" value="" style="shape=mxgraph.cisco.switches.workgroup_switch;html=1;pointerEvents=1;dashed=0;fillColor=#036897;strokeColor=#ffffff;strokeWidth=2;verticalLabelPosition=bottom;verticalAlign=top;align=center;outlineConnect=0;" vertex="1" parent="1">
          <mxGeometry x="660" y="662" width="56" height="22" as="geometry" />
        </mxCell>
        <mxCell id="sdRUNIrDwh6hOreDYhYG-47" value="" style="shape=mxgraph.cisco.switches.workgroup_switch;html=1;pointerEvents=1;dashed=0;fillColor=#036897;strokeColor=#ffffff;strokeWidth=2;verticalLabelPosition=bottom;verticalAlign=top;align=center;outlineConnect=0;" vertex="1" parent="1">
          <mxGeometry x="-90" y="697" width="56" height="22" as="geometry" />
        </mxCell>
        <mxCell id="sdRUNIrDwh6hOreDYhYG-48" value="" style="shape=mxgraph.cisco.switches.workgroup_switch;html=1;pointerEvents=1;dashed=0;fillColor=#036897;strokeColor=#ffffff;strokeWidth=2;verticalLabelPosition=bottom;verticalAlign=top;align=center;outlineConnect=0;" vertex="1" parent="1">
          <mxGeometry x="-90" y="532" width="56" height="22" as="geometry" />
        </mxCell>
        <mxCell id="sdRUNIrDwh6hOreDYhYG-49" value="" style="shape=mxgraph.cisco.switches.workgroup_switch;html=1;pointerEvents=1;dashed=0;fillColor=#036897;strokeColor=#ffffff;strokeWidth=2;verticalLabelPosition=bottom;verticalAlign=top;align=center;outlineConnect=0;" vertex="1" parent="1">
          <mxGeometry x="-90" y="379" width="56" height="22" as="geometry" />
        </mxCell>
        <mxCell id="sdRUNIrDwh6hOreDYhYG-50" value="" style="shape=mxgraph.cisco.switches.workgroup_switch;html=1;pointerEvents=1;dashed=0;fillColor=#036897;strokeColor=#ffffff;strokeWidth=2;verticalLabelPosition=bottom;verticalAlign=top;align=center;outlineConnect=0;" vertex="1" parent="1">
          <mxGeometry x="-90" y="253.5" width="56" height="22" as="geometry" />
        </mxCell>
        <mxCell id="sdRUNIrDwh6hOreDYhYG-51" value="" style="shape=mxgraph.cisco.switches.workgroup_switch;html=1;pointerEvents=1;dashed=0;fillColor=#036897;strokeColor=#ffffff;strokeWidth=2;verticalLabelPosition=bottom;verticalAlign=top;align=center;outlineConnect=0;" vertex="1" parent="1">
          <mxGeometry x="-90" y="127" width="56" height="22" as="geometry" />
        </mxCell>
        <mxCell id="sdRUNIrDwh6hOreDYhYG-52" value="" style="shape=mxgraph.cisco.routers.router;html=1;pointerEvents=1;dashed=0;fillColor=#036897;strokeColor=#ffffff;strokeWidth=2;verticalLabelPosition=bottom;verticalAlign=top;align=center;outlineConnect=0;" vertex="1" parent="1">
          <mxGeometry x="448.5" y="100" width="50" height="23" as="geometry" />
        </mxCell>
        <mxCell id="sdRUNIrDwh6hOreDYhYG-53" value="" style="shape=mxgraph.cisco.routers.router;html=1;pointerEvents=1;dashed=0;fillColor=#036897;strokeColor=#ffffff;strokeWidth=2;verticalLabelPosition=bottom;verticalAlign=top;align=center;outlineConnect=0;" vertex="1" parent="1">
          <mxGeometry x="490" y="170" width="50" height="23" as="geometry" />
        </mxCell>
        <mxCell id="sdRUNIrDwh6hOreDYhYG-54" value="" style="shape=mxgraph.cisco.servers.fileserver;html=1;pointerEvents=1;dashed=0;fillColor=#036897;strokeColor=#ffffff;strokeWidth=2;verticalLabelPosition=bottom;verticalAlign=top;align=center;outlineConnect=0;" vertex="1" parent="1">
          <mxGeometry x="380" y="246.5" width="43" height="62" as="geometry" />
        </mxCell>
        <mxCell id="sdRUNIrDwh6hOreDYhYG-55" value="" style="shape=mxgraph.cisco.servers.fileserver;html=1;pointerEvents=1;dashed=0;fillColor=#036897;strokeColor=#ffffff;strokeWidth=2;verticalLabelPosition=bottom;verticalAlign=top;align=center;outlineConnect=0;" vertex="1" parent="1">
          <mxGeometry x="415" y="246.5" width="43" height="62" as="geometry" />
        </mxCell>
        <mxCell id="sdRUNIrDwh6hOreDYhYG-56" value="" style="shape=mxgraph.cisco.servers.fileserver;html=1;pointerEvents=1;dashed=0;fillColor=#036897;strokeColor=#ffffff;strokeWidth=2;verticalLabelPosition=bottom;verticalAlign=top;align=center;outlineConnect=0;" vertex="1" parent="1">
          <mxGeometry x="452" y="246.5" width="43" height="62" as="geometry" />
        </mxCell>
        <mxCell id="sdRUNIrDwh6hOreDYhYG-7" value="" style="shape=mxgraph.cisco.switches.atm_fast_gigabit_etherswitch;html=1;pointerEvents=1;dashed=0;fillColor=#036897;strokeColor=#ffffff;strokeWidth=2;verticalLabelPosition=bottom;verticalAlign=top;align=center;outlineConnect=0;" vertex="1" parent="1">
          <mxGeometry x="398" y="434" width="60" height="54" as="geometry" />
        </mxCell>
        <mxCell id="sdRUNIrDwh6hOreDYhYG-57" value="" style="shape=mxgraph.cisco.switches.layer_3_switch;html=1;pointerEvents=1;dashed=0;fillColor=#036897;strokeColor=#ffffff;strokeWidth=2;verticalLabelPosition=bottom;verticalAlign=top;align=center;outlineConnect=0;" vertex="1" parent="1">
          <mxGeometry x="-44" y="-44" width="64" height="64" as="geometry" />
        </mxCell>
        <mxCell id="sdRUNIrDwh6hOreDYhYG-58" value="" style="shape=mxgraph.cisco.buildings.university;html=1;pointerEvents=1;dashed=0;fillColor=#036897;strokeColor=#ffffff;strokeWidth=2;verticalLabelPosition=bottom;verticalAlign=top;align=center;outlineConnect=0;" vertex="1" parent="1">
          <mxGeometry x="-300" y="-44" width="133" height="53" as="geometry" />
        </mxCell>
        <mxCell id="sdRUNIrDwh6hOreDYhYG-8" value="" style="shape=mxgraph.cisco.switches.workgroup_switch;html=1;pointerEvents=1;dashed=0;fillColor=#036897;strokeColor=#ffffff;strokeWidth=2;verticalLabelPosition=bottom;verticalAlign=top;align=center;outlineConnect=0;" vertex="1" parent="1">
          <mxGeometry x="386" y="298" width="56" height="22" as="geometry" />
        </mxCell>
        <mxCell id="sdRUNIrDwh6hOreDYhYG-80" value="" style="shape=mxgraph.cisco.routers.router;html=1;pointerEvents=1;dashed=0;fillColor=#036897;strokeColor=#ffffff;strokeWidth=2;verticalLabelPosition=bottom;verticalAlign=top;align=center;outlineConnect=0;" vertex="1" parent="1">
          <mxGeometry x="314" y="-13" width="50" height="23" as="geometry" />
        </mxCell>
        <mxCell id="sdRUNIrDwh6hOreDYhYG-125" value="生活园区" style="text;html=1;strokeColor=none;fillColor=none;align=center;verticalAlign=middle;whiteSpace=wrap;rounded=0;" vertex="1" parent="1">
          <mxGeometry x="395" y="594.5" width="66" height="20" as="geometry" />
        </mxCell>
        <mxCell id="sdRUNIrDwh6hOreDYhYG-126" value="老校区北区" style="text;html=1;strokeColor=none;fillColor=none;align=center;verticalAlign=middle;whiteSpace=wrap;rounded=0;" vertex="1" parent="1">
          <mxGeometry x="677" y="732" width="66" height="20" as="geometry" />
        </mxCell>
        <mxCell id="sdRUNIrDwh6hOreDYhYG-127" value="网络中心" style="text;html=1;strokeColor=none;fillColor=none;align=center;verticalAlign=middle;whiteSpace=wrap;rounded=0;" vertex="1" parent="1">
          <mxGeometry x="524" y="470" width="66" height="20" as="geometry" />
        </mxCell>
        <mxCell id="sdRUNIrDwh6hOreDYhYG-128" value="校本部核心&lt;br&gt;交换区域" style="text;html=1;strokeColor=none;fillColor=none;align=center;verticalAlign=middle;whiteSpace=wrap;rounded=0;" vertex="1" parent="1">
          <mxGeometry x="255" y="276" width="66" height="20" as="geometry" />
        </mxCell>
        <mxCell id="sdRUNIrDwh6hOreDYhYG-129" value="新校区核心&lt;br&gt;交换区域" style="text;html=1;strokeColor=none;fillColor=none;align=center;verticalAlign=middle;whiteSpace=wrap;rounded=0;" vertex="1" parent="1">
          <mxGeometry x="23" y="100" width="66" height="20" as="geometry" />
        </mxCell>
        <mxCell id="sdRUNIrDwh6hOreDYhYG-130" value="老校区南区" style="text;html=1;strokeColor=none;fillColor=none;align=center;verticalAlign=middle;whiteSpace=wrap;rounded=0;" vertex="1" parent="1">
          <mxGeometry x="-157.5" y="742" width="66" height="20" as="geometry" />
        </mxCell>
        <mxCell id="sdRUNIrDwh6hOreDYhYG-131" value="质量监督学院" style="text;html=1;strokeColor=none;fillColor=none;align=center;verticalAlign=middle;whiteSpace=wrap;rounded=0;" vertex="1" parent="1">
          <mxGeometry x="-300" y="17.25" width="110" height="20" as="geometry" />
        </mxCell>
        <mxCell id="sdRUNIrDwh6hOreDYhYG-132" value="IPv6接入" style="text;html=1;strokeColor=none;fillColor=none;align=center;verticalAlign=middle;whiteSpace=wrap;rounded=0;" vertex="1" parent="1">
          <mxGeometry x="458" y="-20" width="66" height="20" as="geometry" />
        </mxCell>
        <mxCell id="sdRUNIrDwh6hOreDYhYG-133" value="新校区" style="text;html=1;strokeColor=none;fillColor=none;align=center;verticalAlign=middle;whiteSpace=wrap;rounded=0;" vertex="1" parent="1">
          <mxGeometry x="-75" y="-150" width="66" height="20" as="geometry" />
        </mxCell>
        <mxCell id="sdRUNIrDwh6hOreDYhYG-134" value="CERNET" style="text;html=1;strokeColor=none;fillColor=none;align=center;verticalAlign=middle;whiteSpace=wrap;rounded=0;" vertex="1" parent="1">
          <mxGeometry x="395" y="38" width="66" height="20" as="geometry" />
        </mxCell>
        <mxCell id="sdRUNIrDwh6hOreDYhYG-135" value="中国移动" style="text;html=1;strokeColor=none;fillColor=none;align=center;verticalAlign=middle;whiteSpace=wrap;rounded=0;" vertex="1" parent="1">
          <mxGeometry x="554" y="38" width="66" height="20" as="geometry" />
        </mxCell>
        <mxCell id="sdRUNIrDwh6hOreDYhYG-136" value="中国网通" style="text;html=1;strokeColor=none;fillColor=none;align=center;verticalAlign=middle;whiteSpace=wrap;rounded=0;" vertex="1" parent="1">
          <mxGeometry x="665" y="20" width="66" height="20" as="geometry" />
        </mxCell>
        <mxCell id="sdRUNIrDwh6hOreDYhYG-137" value="中国电信" style="text;html=1;strokeColor=none;fillColor=none;align=center;verticalAlign=middle;whiteSpace=wrap;rounded=0;" vertex="1" parent="1">
          <mxGeometry x="208" y="-92" width="66" height="20" as="geometry" />
        </mxCell>
        <mxCell id="sdRUNIrDwh6hOreDYhYG-138" value="CERNET2" style="text;html=1;strokeColor=none;fillColor=none;align=center;verticalAlign=middle;whiteSpace=wrap;rounded=0;" vertex="1" parent="1">
          <mxGeometry x="332" y="-92" width="66" height="20" as="geometry" />
        </mxCell>
        <mxCell id="sdRUNIrDwh6hOreDYhYG-139" value="6BONE" style="text;html=1;strokeColor=none;fillColor=none;align=center;verticalAlign=middle;whiteSpace=wrap;rounded=0;" vertex="1" parent="1">
          <mxGeometry x="482" y="-101" width="66" height="20" as="geometry" />
        </mxCell>
        <mxCell id="sdRUNIrDwh6hOreDYhYG-140" value="后勤集团" style="text;html=1;strokeColor=none;fillColor=none;align=center;verticalAlign=middle;whiteSpace=wrap;rounded=0;" vertex="1" parent="1">
          <mxGeometry x="-127.5" y="177" width="66" height="20" as="geometry" />
        </mxCell>
        <mxCell id="sdRUNIrDwh6hOreDYhYG-141" value="图书馆" style="text;html=1;strokeColor=none;fillColor=none;align=center;verticalAlign=middle;whiteSpace=wrap;rounded=0;" vertex="1" parent="1">
          <mxGeometry x="-136.5" y="294.5" width="66" height="20" as="geometry" />
        </mxCell>
        <mxCell id="sdRUNIrDwh6hOreDYhYG-142" value="多功能馆" style="text;html=1;strokeColor=none;fillColor=none;align=center;verticalAlign=middle;whiteSpace=wrap;rounded=0;" vertex="1" parent="1">
          <mxGeometry x="-129" y="427" width="66" height="20" as="geometry" />
        </mxCell>
        <mxCell id="sdRUNIrDwh6hOreDYhYG-143" value="南院教学楼群" style="text;html=1;strokeColor=none;fillColor=none;align=center;verticalAlign=middle;whiteSpace=wrap;rounded=0;" vertex="1" parent="1">
          <mxGeometry x="-133" y="585" width="83" height="20" as="geometry" />
        </mxCell>
        <mxCell id="sdRUNIrDwh6hOreDYhYG-144" value="主楼" style="text;html=1;strokeColor=none;fillColor=none;align=center;verticalAlign=middle;whiteSpace=wrap;rounded=0;" vertex="1" parent="1">
          <mxGeometry x="-100" y="734.5" width="70" height="20" as="geometry" />
        </mxCell>
        <mxCell id="sdRUNIrDwh6hOreDYhYG-145" value="北院教学楼群" style="text;html=1;strokeColor=none;fillColor=none;align=center;verticalAlign=middle;whiteSpace=wrap;rounded=0;" vertex="1" parent="1">
          <mxGeometry x="643" y="712" width="87" height="20" as="geometry" />
        </mxCell>
        <mxCell id="sdRUNIrDwh6hOreDYhYG-146" value="生科院" style="text;html=1;strokeColor=none;fillColor=none;align=center;verticalAlign=middle;whiteSpace=wrap;rounded=0;" vertex="1" parent="1">
          <mxGeometry x="666.5" y="602" width="87" height="20" as="geometry" />
        </mxCell>
        <mxCell id="sdRUNIrDwh6hOreDYhYG-147" value="化学院" style="text;html=1;strokeColor=none;fillColor=none;align=center;verticalAlign=middle;whiteSpace=wrap;rounded=0;" vertex="1" parent="1">
          <mxGeometry x="644.5" y="506" width="87" height="20" as="geometry" />
        </mxCell>
        <mxCell id="sdRUNIrDwh6hOreDYhYG-148" value="校医院" style="text;html=1;strokeColor=none;fillColor=none;align=center;verticalAlign=middle;whiteSpace=wrap;rounded=0;" vertex="1" parent="1">
          <mxGeometry x="656" y="383" width="87" height="20" as="geometry" />
        </mxCell>
        <mxCell id="sdRUNIrDwh6hOreDYhYG-149" value="电子信息工程学院" style="text;html=1;strokeColor=none;fillColor=none;align=center;verticalAlign=middle;whiteSpace=wrap;rounded=0;" vertex="1" parent="1">
          <mxGeometry x="660" y="276.5" width="110" height="20" as="geometry" />
        </mxCell>
        <mxCell id="sdRUNIrDwh6hOreDYhYG-150" value="计算机中心理化分析中心" style="text;html=1;strokeColor=none;fillColor=none;align=center;verticalAlign=middle;whiteSpace=wrap;rounded=0;" vertex="1" parent="1">
          <mxGeometry x="664" y="177" width="136" height="20" as="geometry" />
        </mxCell>
        <mxCell id="sdRUNIrDwh6hOreDYhYG-152" value="服务器群" style="text;html=1;strokeColor=none;fillColor=none;align=center;verticalAlign=middle;whiteSpace=wrap;rounded=0;" vertex="1" parent="1">
          <mxGeometry x="430" y="313" width="87" height="20" as="geometry" />
        </mxCell>
      </root>
    </mxGraphModel>
  </diagram>
</mxfile>
